<svg width="22" height="18" viewBox="0 0 22 18" fill="none" xmlns="http://www.w3.org/2000/svg">
<path fill-rule="evenodd" clip-rule="evenodd" d="M17.8568 0C20.1407 0 21.999 1.83981 21.999 4.10019L22 6.75451C22 6.95712 21.9192 7.15358 21.7749 7.29684C21.6316 7.44112 21.4362 7.52195 21.2326 7.52195C20.4273 7.52195 19.7724 8.16456 19.7724 8.95451C19.7724 9.74447 20.4273 10.3871 21.2326 10.3871C21.6562 10.3871 22 10.7309 22 11.1545V13.8068C22 16.0672 20.1418 17.907 17.8579 17.907H4.14214C1.85823 17.907 0 16.0672 0 13.8068V11.1545C0 10.7309 0.343814 10.3871 0.767442 10.3871C1.57274 10.3871 2.22763 9.74447 2.22763 8.95451C2.22763 8.18707 1.59935 7.60791 0.767442 7.60791C0.563814 7.60791 0.368372 7.52707 0.225116 7.38279C0.0808372 7.23953 0 7.04307 0 6.84047L0.00102326 4.10019C0.00102326 1.83981 1.85926 0 4.14316 0H17.8568ZM17.8568 1.53488H13.6594L13.6601 3.50076C13.6601 3.92439 13.3162 4.2682 12.8926 4.2682C12.469 4.2682 12.1252 3.92439 12.1252 3.50076L12.1246 1.53488H4.14316C2.70549 1.53488 1.53591 2.68605 1.53591 4.10019L1.53488 6.16512C2.83135 6.48335 3.76251 7.5946 3.76251 8.95451C3.76251 10.3277 2.81498 11.486 1.53488 11.8227V13.8068C1.53488 15.2209 2.70446 16.3721 4.14214 16.3721H12.1246L12.1252 14.849C12.1252 14.4243 12.469 14.0815 12.8926 14.0815C13.3162 14.0815 13.6601 14.4243 13.6601 14.849L13.6594 16.3721H17.8579C19.2955 16.3721 20.4651 15.2209 20.4651 13.8068V11.8227C19.185 11.486 18.2375 10.3277 18.2375 8.95451C18.2375 7.58028 19.184 6.42298 20.4651 6.08633L20.4641 4.10019C20.4641 2.68605 19.2945 1.53488 17.8568 1.53488ZM12.8926 5.63251C13.3162 5.63251 13.6601 5.97633 13.6601 6.39995V11.3331C13.6601 11.7567 13.3162 12.1005 12.8926 12.1005C12.469 12.1005 12.1252 11.7567 12.1252 11.3331V6.39995C12.1252 5.97633 12.469 5.63251 12.8926 5.63251Z" fill="#CEB8A4"/>
</svg>
