<svg width="19" height="20" viewBox="0 0 19 20" fill="none" xmlns="http://www.w3.org/2000/svg">
<path fill-rule="evenodd" clip-rule="evenodd" d="M12.8311 0C13.2162 0 13.5288 0.312557 13.5288 0.697671L13.5292 1.48633C14.8874 1.57945 16.0155 2.04469 16.8139 2.84473C17.6855 3.72008 18.1441 4.97867 18.1395 6.48844V14.9749C18.1395 18.0744 16.1711 20 13.0037 20H5.13579C1.96836 20 0 18.0475 0 14.9042V6.48658C0 3.56305 1.75539 1.68645 4.61829 1.48665L4.61886 0.697671C4.61886 0.312557 4.93142 0 5.31653 0C5.70165 0 6.01421 0.312557 6.01421 0.697671L6.01393 1.46883H12.133L12.1334 0.697671C12.1334 0.312557 12.446 0 12.8311 0ZM16.7441 8.28275H1.39534V14.9042C1.39534 17.2912 2.72371 18.6047 5.13579 18.6047H13.0037C15.4157 18.6047 16.7441 17.3154 16.7441 14.9749L16.7441 8.28275ZM13.2104 14.136C13.5955 14.136 13.908 14.4486 13.908 14.8337C13.908 15.2188 13.5955 15.5314 13.2104 15.5314C12.8252 15.5314 12.509 15.2188 12.509 14.8337C12.509 14.4486 12.8169 14.136 13.202 14.136H13.2104ZM9.08247 14.136C9.46758 14.136 9.78014 14.4486 9.78014 14.8337C9.78014 15.2188 9.46758 15.5314 9.08247 15.5314C8.69736 15.5314 8.38108 15.2188 8.38108 14.8337C8.38108 14.4486 8.68898 14.136 9.0741 14.136H9.08247ZM4.94593 14.136C5.33105 14.136 5.6436 14.4486 5.6436 14.8337C5.6436 15.2188 5.33105 15.5314 4.94593 15.5314C4.56082 15.5314 4.24361 15.2188 4.24361 14.8337C4.24361 14.4486 4.55244 14.136 4.93756 14.136H4.94593ZM13.2104 10.5205C13.5955 10.5205 13.908 10.8331 13.908 11.2182C13.908 11.6033 13.5955 11.9159 13.2104 11.9159C12.8252 11.9159 12.509 11.6033 12.509 11.2182C12.509 10.8331 12.8169 10.5205 13.202 10.5205H13.2104ZM9.08247 10.5205C9.46758 10.5205 9.78014 10.8331 9.78014 11.2182C9.78014 11.6033 9.46758 11.9159 9.08247 11.9159C8.69736 11.9159 8.38108 11.6033 8.38108 11.2182C8.38108 10.8331 8.68898 10.5205 9.0741 10.5205H9.08247ZM4.94593 10.5205C5.33105 10.5205 5.6436 10.8331 5.6436 11.2182C5.6436 11.6033 5.33105 11.9159 4.94593 11.9159C4.56082 11.9159 4.24361 11.6033 4.24361 11.2182C4.24361 10.8331 4.55244 10.5205 4.93756 10.5205H4.94593ZM12.133 2.86417H6.01393L6.01421 3.75905C6.01421 4.14417 5.70165 4.45672 5.31653 4.45672C4.93142 4.45672 4.61886 4.14417 4.61886 3.75905L4.61837 2.88529C2.53444 3.06035 1.39534 4.32357 1.39534 6.48658V6.88741H16.7441L16.7441 6.48658C16.7478 5.33774 16.439 4.44472 15.826 3.83077C15.2879 3.29106 14.5012 2.96873 13.5296 2.88574L13.5288 3.75905C13.5288 4.14417 13.2162 4.45672 12.8311 4.45672C12.446 4.45672 12.1334 4.14417 12.1334 3.75905L12.133 2.86417Z" fill="#CEB8A4"/>
</svg>
