<svg width="17" height="20" viewBox="0 0 17 20" fill="none" xmlns="http://www.w3.org/2000/svg">
<path fill-rule="evenodd" clip-rule="evenodd" d="M8.46154 0C13.1272 0 16.9231 3.82462 16.9231 8.52615C16.9231 14.3056 10.3015 20 8.46154 20C6.62154 20 0 14.3056 0 8.52615C0 3.82462 3.7959 0 8.46154 0ZM8.46154 1.53846C4.6441 1.53846 1.53846 4.67385 1.53846 8.52615C1.53846 13.4277 7.30667 18.2031 8.46154 18.4574C9.61641 18.2021 15.3846 13.4267 15.3846 8.52615C15.3846 4.67385 12.279 1.53846 8.46154 1.53846ZM8.46256 5.12821C10.3005 5.12821 11.7959 6.62359 11.7959 8.46256C11.7959 10.3005 10.3005 11.7949 8.46256 11.7949C6.62461 11.7949 5.12923 10.3005 5.12923 8.46256C5.12923 6.62359 6.62461 5.12821 8.46256 5.12821ZM8.46256 6.66667C7.47282 6.66667 6.66769 7.4718 6.66769 8.46256C6.66769 9.45231 7.47282 10.2564 8.46256 10.2564C9.45231 10.2564 10.2574 9.45231 10.2574 8.46256C10.2574 7.4718 9.45231 6.66667 8.46256 6.66667Z" fill="#CEB8A4"/>
</svg>
