<svg width="51" height="50" viewBox="0 0 51 50" fill="none" xmlns="http://www.w3.org/2000/svg">
<path fill-rule="evenodd" clip-rule="evenodd" d="M25.4642 48.2889C18.6955 49.4994 12.575 47.3096 8.29975 42.3725C8.05947 42.0959 7.79198 41.8692 7.53809 41.5428C5.80623 39.3349 4.85416 37.7436 3.72981 34.9508C1.06854 28.3317 1.16829 21.5266 3.75248 14.912C5.28033 10.9904 7.12553 8.80516 9.91374 6.03962C10.2764 5.68146 11.0925 5.03768 11.6003 4.68405C12.6521 3.9496 13.9396 3.13807 15.3995 2.57136C19.2214 1.09338 21.3613 1.09792 25.505 1.70996L24.7252 2.29934C21.2842 4.27602 17.9293 7.25918 15.7622 10.6096C10.4034 18.9152 10.4351 31.1108 15.8166 39.4936C17.9021 42.7442 20.9215 45.3511 24.1087 47.3595C24.426 47.559 24.5439 47.6089 24.8114 47.7721L25.4642 48.2889ZM27.1553 2.62576C28.1799 2.17693 30.0478 3.42369 30.9454 3.89066C33.2712 5.09661 35.1209 6.71514 37.0342 8.36539C37.9454 9.14972 38.7706 10.0429 39.5413 10.9723L42.0212 13.7741C45.6345 18.3576 50.8483 16.3945 50.9208 11.9651C51.0024 6.87835 44.8502 2.72097 40.6339 1.24299C32.8496 -1.49081 28.7919 1.2702 27.1326 0.839497C25.6093 0.445068 24.5258 0.105042 22.8392 0.0234362C10.9429 -0.55234 2.84121 9.57588 0.964271 19.9489C-2.24557 37.7255 11.7045 53.7112 26.8878 49.241C28.2162 48.8465 29.6941 49.5946 31.1177 49.7986C37.2971 50.6782 43.5037 48.2436 46.9448 45.1471C48.5134 43.7326 50.5989 41.8556 50.9117 38.5188C51.3243 34.1076 46.106 31.4327 42.2434 35.9664L38.3807 40.0966C37.9137 40.6043 37.619 40.9308 37.1339 41.4159C35.2434 43.3019 29.7123 47.6859 27.5361 47.4728C25.9357 47.3187 21.8373 44.2811 21.0258 43.5603C20.0284 42.6717 19.3392 41.7831 18.5005 40.8083C11.8088 33.0648 11.5821 21.6853 16.1929 12.6406C18.5005 8.11604 22.5173 4.65232 27.1553 2.62576Z" fill="black"/>
</svg>
