<svg width="401" height="100" viewBox="0 0 401 100" fill="none" xmlns="http://www.w3.org/2000/svg">
<path fill-rule="evenodd" clip-rule="evenodd" d="M96.8831 40.9357C113.033 53.0998 131.158 68.4788 151.215 87.7112C151.536 88.0198 151.547 88.5308 151.239 88.8526C150.93 89.1744 150.419 89.1851 150.097 88.8765C129.405 69.0339 110.79 53.3192 94.3029 41.0193C72.7309 41.6135 54.9614 39.4388 40.9025 35.8331C27.4269 32.3769 17.3398 27.6005 10.5826 22.6682C7.20445 20.2024 4.64163 17.6852 2.90706 15.258C1.177 12.837 0.238791 10.4592 0.196783 8.28731C0.154118 6.08142 1.0401 4.15585 2.80848 2.72589C4.55027 1.31742 7.10038 0.424688 10.3623 0.118696C16.8839 -0.493084 26.5251 1.21344 39.1612 6.32483C53.6998 12.2058 72.2942 22.6314 94.8176 39.3894C114.36 38.8093 137.056 35.9465 162.98 29.7877C240.18 11.4472 297.34 2.6964 336.188 0.863486C355.608 -0.0527319 370.492 0.757315 381.031 2.98154C386.301 4.09366 390.519 5.56639 393.684 7.37813C396.849 9.19021 399.008 11.3701 400.064 13.9114C402.196 19.0427 399.658 25.0961 393.478 31.5613C387.253 38.0744 377.099 45.2665 363.289 52.8116C339.609 65.7484 305.04 79.7969 260.692 93.2725C264.913 92.5796 269.343 91.9795 273.743 91.5768C281.214 90.8929 288.644 90.7736 294.838 91.7536C300.994 92.7277 306.132 94.8197 308.748 98.7445C308.996 99.1155 308.896 99.6167 308.525 99.864C308.154 100.111 307.652 100.011 307.405 99.6402C305.178 96.2992 300.627 94.3042 294.586 93.3484C288.582 92.3984 281.303 92.5061 273.89 93.1846C260.415 94.4179 246.639 97.5227 239.573 99.4338C239.332 99.5014 239.09 99.569 238.849 99.6366C238.478 99.7402 238.107 99.8437 237.735 99.9472L237.664 99.9676C237.607 99.9841 237.55 99.9941 237.493 99.998C237.287 100.013 237.087 99.9466 236.931 99.8213C236.805 99.7204 236.708 99.5808 236.661 99.4143C236.66 99.4123 236.659 99.4105 236.659 99.4085C236.64 99.3399 236.63 99.271 236.629 99.203C236.624 98.8452 236.859 98.5148 237.22 98.4144L237.269 98.4008C237.31 98.3892 237.35 98.3777 237.39 98.3661C237.426 98.3558 237.462 98.3455 237.498 98.3351C248.633 95.1301 258.314 90.9514 265.409 85.6299C272.555 80.2706 277.027 73.7954 277.805 66.0132C277.85 65.5695 278.245 65.2459 278.689 65.2902C279.132 65.3346 279.456 65.7302 279.412 66.1738C278.575 74.5374 273.764 81.3824 266.378 86.9215C263.53 89.0579 260.291 91.0064 256.734 92.7803C302.696 79.0052 338.346 64.5988 362.515 51.3947C376.266 43.8822 386.253 36.784 392.311 30.4457C398.416 24.0596 400.305 18.7009 398.573 14.5309C397.696 12.4215 395.85 10.4785 392.882 8.77932C389.913 7.07983 385.871 5.65304 380.698 4.56131C370.352 2.37785 355.623 1.56292 336.265 2.47627C297.558 4.30248 240.507 13.029 163.353 31.3585C138.222 37.3291 116.086 40.2198 96.8831 40.9357ZM92.1913 39.4541C70.5052 23.4822 52.5875 13.4975 38.5558 7.82159C26.027 2.75363 16.6654 1.14907 10.5131 1.72621C7.43802 2.01468 5.23343 2.8414 3.82368 3.98136C2.44051 5.09983 1.77809 6.55165 1.81105 8.25609C1.84468 9.99453 2.60614 12.0599 4.22067 14.3192C5.83069 16.5721 8.25739 18.972 11.5345 21.3641C18.0881 26.1477 27.9749 30.8506 41.3036 34.2691C54.7531 37.7185 71.6861 39.8545 92.1913 39.4541Z" fill="#FF4E00"/>
</svg>
