<svg width="186" height="186" viewBox="0 0 186 186" fill="none" xmlns="http://www.w3.org/2000/svg">
<path d="M20.3021 132.02L16.8781 132.737L17.5732 134.528L15.5028 135.331L14.6574 133.187L10.9708 133.974L11.7519 135.97L9.68144 136.774L8.75011 134.424L5.40106 135.119L4.57559 132.993L7.90568 132.299L6.62495 129.016L3.29577 129.729L2.45134 127.603L5.80039 126.909L5.08722 125.138L7.17571 124.314L8.00211 126.46L11.7077 125.671L10.9266 123.676L12.9961 122.853L13.9275 125.203L17.3524 124.504L18.1968 126.63L14.7539 127.348L16.0526 130.611L19.4766 129.893L20.3021 132.02ZM182.64 78.8453C182.585 78.487 182.815 78.1337 183.172 78.0593C183.531 78.0039 183.884 78.2338 183.958 78.5913C184.322 80.6071 184.63 82.6446 184.882 84.7039C185.114 86.7451 185.29 88.789 185.39 90.8556C186.595 115.655 177.637 138.592 162.178 155.629C146.718 172.667 124.758 183.807 99.9778 185.01C86.4026 185.67 73.3824 183.281 61.5734 178.438C49.3182 173.408 38.3796 165.749 29.4931 156.127C29.2518 155.854 29.2695 155.435 29.5428 155.193C29.7963 154.934 30.2152 154.952 30.4755 155.224C39.2228 164.719 50.0042 172.273 62.0842 177.216C73.699 181.973 86.5277 184.334 99.9133 183.683C124.333 182.497 145.959 171.507 161.184 154.728C176.427 137.947 185.25 115.359 184.063 90.9201C183.964 88.8725 183.789 86.8475 183.559 84.8442C183.327 82.8219 183.02 80.8033 182.64 78.8453ZM13.8329 131.08L12.5521 127.797L8.84562 128.566L10.1254 131.83L13.8329 131.08ZM14.4797 115.445C14.5559 115.841 14.5998 116.352 14.6103 116.959L12.4715 117.139C12.4984 116.91 12.4855 116.645 12.4347 116.381C12.3829 116.098 12.2951 115.856 12.1731 115.69C12.0691 115.505 11.8143 115.347 11.4268 115.195C11.0402 115.061 10.5237 114.991 9.87724 114.985C9.23077 114.978 8.32254 115.06 7.16968 115.192C5.99785 115.325 4.60128 115.526 2.92399 115.817L1.45144 107.412L12.5867 105.427L13.0343 107.99L4.08362 109.565L4.70906 113.05C6.29155 112.764 7.65205 112.603 8.78871 112.529C9.92538 112.455 10.8382 112.468 11.5073 112.549C12.1963 112.649 12.7563 112.83 13.1701 113.133C13.6029 113.435 13.9029 113.744 14.0721 114.097C14.2603 114.449 14.3952 114.879 14.4797 115.445ZM15.51 96.7519C15.4803 97.7035 15.2193 98.5904 14.746 99.4116L12.8382 98.4781C13.1366 97.9694 13.3023 97.4673 13.3162 96.9725C13.3168 96.5924 13.2262 96.2927 13.0427 96.0355C12.86 95.7974 12.5258 95.5665 12.0389 95.3241L0.603496 99.7376L0.678499 96.9783L9.16098 93.9816L0.854989 90.8312L0.932755 88.1288L12.4366 92.9482C13.581 93.4248 14.386 93.9558 14.8506 94.5224C15.3152 95.0889 15.5227 95.839 15.51 96.7519ZM14.1342 76.2558L9.99288 75.5068C10.3552 76.7055 10.4303 77.8611 10.2373 78.9727C10.0262 80.1042 9.5548 80.9633 8.82311 81.55C8.07247 82.1376 7.15081 82.3344 6.03917 82.1414L1.72532 81.3627L2.19058 78.8125L5.89034 79.469C6.42766 79.5759 6.91693 79.4761 7.35999 79.2075C7.80305 78.9389 8.06903 78.5459 8.17504 77.9897C8.33754 77.0315 8.25357 76.0854 7.9222 75.1323L2.99519 74.2503L3.46044 71.7001L14.5995 73.7056L14.1342 76.2558ZM16.4814 67.4567L6.16327 62.7887L7.22733 60.4375L15.524 64.1774L17.2394 60.3692L8.96174 56.6283L10.0258 54.2771L18.3035 58.018L20.0198 54.2287L11.7412 50.4689L12.8053 48.1176L23.1226 52.7667L16.4814 67.4567ZM30.3143 43.5422C29.2943 44.846 28.0193 45.5921 26.4701 45.7814C24.9209 45.9707 23.4551 45.5288 22.0916 44.4547C20.7878 43.4348 20.0236 42.1796 19.7594 40.6531C19.5142 39.1257 19.8641 37.7213 20.8678 36.4753C21.9228 35.1127 23.2007 34.4235 24.7013 34.4076C26.2009 34.3728 27.6325 34.8924 28.996 35.9664C29.2517 36.144 29.4306 36.3064 29.5508 36.4336L24.4152 42.9925C25.2155 43.4288 25.9831 43.5815 26.736 43.4309C27.5078 43.2794 28.153 42.868 28.6715 42.1966C29.3695 41.3075 29.6402 40.2301 29.5018 38.9445L31.5176 38.5805C31.9093 40.3859 31.4956 42.0404 30.3143 43.5422ZM23.0526 41.9375L26.6318 37.3735C25.8864 36.8966 25.154 36.6852 24.3965 36.741C23.658 36.7958 23.029 37.1495 22.5096 37.8019C22.0262 38.4145 21.8508 39.1072 21.9446 39.8628C22.0572 40.6175 22.4136 41.3034 23.0526 41.9375ZM41.4773 31.9582C40.2179 33.0267 38.8171 33.5318 37.2532 33.4177C35.7091 33.3217 34.3442 32.6088 33.2161 31.2953C32.1297 30.0558 31.6056 28.6559 31.6447 27.1146C31.6829 25.5544 32.3237 24.269 33.5271 23.2223C34.8217 22.0951 36.2063 21.6478 37.6828 21.9181C39.1773 22.1686 40.4701 22.961 41.6162 24.2547C41.8178 24.4919 41.9606 24.694 42.0438 24.842L35.7703 30.278C36.4643 30.8714 37.2005 31.1588 37.9796 31.1589C38.7588 31.1591 39.4673 30.8776 40.1051 30.3145C40.9631 29.5886 41.4271 28.5779 41.536 27.2993L43.5703 27.3145C43.6217 29.1554 42.9171 30.691 41.4773 31.9582ZM34.6252 29.0033L39.0204 25.198C38.3833 24.6018 37.7013 24.2548 36.9554 24.158C36.2095 24.0612 35.5172 24.2849 34.8974 24.8281C34.2957 25.3515 33.9839 25.9747 33.9449 26.7368C33.9059 27.4989 34.1333 28.267 34.6252 29.0033ZM50.2407 28.0927L47.7707 23.8036L48.8238 23.1823C48.7137 21.3062 47.7976 18.8801 46.0937 15.8842L45.3892 14.6831L52.9873 10.304L57.5129 18.1801L58.9189 17.3896L61.0928 21.8451L59.2068 22.925L57.8565 20.558L50.9794 24.522L52.1077 27.0138L50.2407 28.0927ZM51.1348 21.8538L55.2768 19.486L51.8519 13.533L48.6168 15.4005L49.3639 16.6946C50.4211 18.5056 50.9997 20.245 51.1348 21.8538ZM65.0252 17.5111C64.6326 17.6442 64.1433 17.744 63.5403 17.8493L63.0408 15.7831C63.2674 15.7531 63.5121 15.7032 63.7738 15.6144C64.0545 15.5248 64.2765 15.4 64.4407 15.259C64.586 15.1189 64.7058 14.847 64.8002 14.4433C64.8766 14.0595 64.8697 13.5277 64.7815 12.8858C64.6744 12.2449 64.4794 11.3611 64.1777 10.2355C63.8759 9.10992 63.4485 7.74335 62.9142 6.13492L71.0105 3.40404L74.6297 14.1368L72.18 14.959L69.2726 6.35815L65.9257 7.48997C66.4364 9.00453 66.8052 10.3359 67.0491 11.4454C67.2931 12.5548 67.4131 13.4612 67.4273 14.1446C67.4415 14.8281 67.3364 15.4033 67.1121 15.8704C66.8868 16.3184 66.6 16.6744 66.2878 16.8986C65.9756 17.1228 65.5488 17.3336 65.0252 17.5111ZM79.9719 13.0031L82.5615 8.41122C81.737 8.26123 81.0559 7.93323 80.4992 7.42815C79.9606 6.90318 79.6232 6.21641 79.5248 5.36598C79.3766 4.27092 79.6728 3.32531 80.3582 2.56984C81.0617 1.79448 82.1032 1.32579 83.4827 1.16375L89.1305 0.452278L90.5317 11.6919L87.9624 12.0068L87.4748 8.22955L85.189 8.51163L82.9944 12.6282L79.9719 13.0031ZM84.5461 6.62341L87.2472 6.28314L86.8151 2.86431L84.095 3.2055C83.4152 3.29554 82.8935 3.51093 82.5499 3.8697C82.1863 4.21044 82.0369 4.6548 82.1196 5.18292C82.1833 5.71195 82.431 6.11801 82.88 6.36226C83.311 6.6264 83.8663 6.71344 84.5461 6.62341ZM96.916 11.6668C96.516 11.6482 96.0175 11.5584 95.4206 11.3974L95.7752 9.30867C96.0064 9.37345 96.2367 9.41928 96.5229 9.44338C96.8092 9.46749 97.0746 9.45459 97.2605 9.36954C97.4663 9.30253 97.6846 9.10188 97.9154 8.76759C98.1462 8.4333 98.3507 7.94825 98.5109 7.33233C98.6701 6.69744 98.8353 5.7962 99.0076 4.64756C99.16 3.48088 99.3004 2.06773 99.4279 0.389135L107.955 1.05813L107.078 12.3324L104.503 12.1345L105.203 3.0733L101.674 2.80763C101.562 4.40946 101.381 5.76758 101.169 6.88014C100.957 7.9927 100.714 8.87867 100.46 9.51816C100.206 10.1576 99.8693 10.6491 99.4859 10.9718C99.0844 11.3144 98.6955 11.5234 98.3199 11.6176C97.9435 11.6929 97.4885 11.715 96.916 11.6668ZM114.737 17.4336C113.831 17.1736 113.049 16.7175 112.351 16.0482L113.736 14.4226C114.156 14.8583 114.606 15.1215 115.068 15.251C115.435 15.3663 115.757 15.3506 116.037 15.242C116.335 15.1135 116.645 14.8514 116.986 14.4357L115.54 2.26704L118.2 3.03105L118.996 11.9815L124.116 4.7201L126.717 5.44894L119.2 15.4114C118.45 16.3981 117.74 17.0407 117.071 17.3583C116.402 17.6569 115.624 17.6946 114.737 17.4336ZM134.83 21.4557L136.757 17.6942C135.503 17.6981 134.37 17.4491 133.375 16.9273C132.343 16.4073 131.643 15.7001 131.297 14.8238C130.95 13.9474 131.037 13.0119 131.558 11.9984L133.555 8.10049L135.873 9.28015L134.155 12.6324C133.893 13.1202 133.841 13.5979 133.979 14.1043C134.099 14.6116 134.421 14.9761 134.908 15.2374C135.766 15.6709 136.707 15.8722 137.712 15.8234L139.985 11.3799L142.304 12.5596L137.13 22.6363L134.83 21.4557ZM142.924 25.7186L150.32 17.1684L152.284 18.8594L146.345 25.7235L149.5 28.4589L155.438 21.5949L157.382 23.2679L151.445 30.1509L154.598 32.8673L160.555 26.0024L162.519 27.6934L155.105 36.2635L142.924 25.7186ZM159.556 41.0265L168.777 34.4591L170.245 36.5163L164.074 40.921C168.177 40.8927 171.274 40.8753 173.346 40.8887L174.773 42.8719L165.552 49.4393L164.104 47.4001L170.238 43.0162L160.983 43.0097L159.556 41.0265ZM168.662 54.0013L175.611 55.4311L179.028 49.4878L180.198 52.0536L177.88 55.9671L182.35 56.8332L183.479 59.3439L176.817 57.9572L173.241 64.1553L172.09 61.5697L174.548 57.4023L169.791 56.5121L168.662 54.0013Z" fill="black"/>
</svg>
