<svg width="335" height="50" viewBox="0 0 335 50" fill="none" xmlns="http://www.w3.org/2000/svg">
<path fill-rule="evenodd" clip-rule="evenodd" d="M318.811 0.0947932C319.187 0.299828 319.325 0.770839 319.12 1.14683C314.655 9.33542 316.939 19.8714 321.141 29.17C324.326 36.2204 328.543 42.3997 331.458 46.0288C332.178 46.809 332.864 47.5905 333.516 48.3716C333.618 48.4712 333.719 48.5708 333.819 48.6702C334.037 48.8861 334.067 49.2021 333.922 49.467C333.884 49.565 333.826 49.6569 333.747 49.736C333.587 49.8971 333.373 49.9728 333.162 49.9631C333.023 49.9589 332.886 49.9176 332.767 49.8408C332.695 49.8065 332.63 49.7611 332.573 49.7047C328.152 45.3254 322.248 40.7785 312.88 38.4555C303.503 36.1304 290.573 36.0131 272.059 40.6398C271.617 40.7502 271.189 40.5236 271.102 40.1338C271.015 39.7439 271.303 39.3384 271.745 39.228C290.464 34.5503 303.706 34.627 313.43 37.0384C317.705 38.0985 321.285 39.6059 324.339 41.3433C297.985 18.7866 240.668 0.355026 149.101 28.6047C127.844 35.1629 109.172 39.9429 92.8947 43.2992C95.9112 44.9152 98.9781 46.6543 102.092 48.5232C102.459 48.7436 102.578 49.2199 102.358 49.5871C102.137 49.9543 101.661 50.0733 101.294 49.8529C97.6272 47.6522 94.0277 45.6337 90.501 43.786C66.8286 48.5327 48.3517 50.217 34.46 49.978C22.5813 49.7736 14.0061 48.1622 8.39218 45.8206C2.83844 43.5041 -0.0965656 40.3341 0.00242409 36.8816C0.100305 33.4678 3.16279 30.3782 8.11483 28.1959C13.1304 25.9856 20.3433 24.5733 29.3401 24.6406C44.987 24.7577 66.1259 29.35 90.7327 42.1574C107.379 38.798 126.611 33.9203 148.644 27.1228C240.596 -1.24584 298.568 17.1828 325.413 40.2191C323.454 37.1601 321.443 33.6063 319.728 29.8085C315.488 20.4255 312.921 9.27521 317.759 0.404329C317.964 0.0283421 318.435 -0.110242 318.811 0.0947932ZM88.2875 42.6437C64.608 30.6104 44.3309 26.3037 29.3285 26.1914C20.481 26.1252 13.4998 27.5177 8.74023 29.6151C3.91708 31.7406 1.62331 34.4616 1.55265 36.9261C1.4831 39.3519 3.56726 42.1277 8.9892 44.3893C14.3509 46.6257 22.7079 48.2246 34.4867 48.4274C47.8741 48.6577 65.6181 47.0838 88.2875 42.6437Z" fill="#FF4E00"/>
</svg>
