<svg width="97" height="96" viewBox="0 0 97 96" fill="none" xmlns="http://www.w3.org/2000/svg">
<circle cx="49" cy="48" r="47" stroke="white" stroke-width="2"/>
<path d="M61.832 59.0002V44.3335" stroke="white" stroke-width="2.5" stroke-linecap="round" stroke-linejoin="round"/>
<path d="M59.5623 33.7722C60.0504 34.2604 60.8419 34.2604 61.33 33.7722C61.8182 33.2841 61.8182 32.4926 61.33 32.0044L59.5623 33.7722ZM47.895 35.8935C47.4068 36.3817 47.4068 37.1731 47.895 37.6613C48.3832 38.1495 49.1746 38.1495 49.6628 37.6613L47.895 35.8935ZM44.0059 32.0044C43.5178 32.4926 43.5178 33.2841 44.0059 33.7722C44.4941 34.2604 45.2855 34.2604 45.7737 33.7722L44.0059 32.0044ZM55.6732 37.6613C56.1613 38.1495 56.9528 38.1495 57.4409 37.6613C57.9291 37.1731 57.9291 36.3817 57.4409 35.8935L55.6732 37.6613ZM43.5013 45.8361H42.2513H43.5013ZM44.9751 44.0384L45.2202 45.2641L44.9751 44.0384ZM45.6942 51.2279L45.9393 52.4537L45.6942 51.2279ZM43.5013 49.4302H44.7513H43.5013ZM61.8346 46.4969H63.0846H61.8346ZM60.3608 48.2946L60.1157 47.0689L60.3608 48.2946ZM61.8346 42.9028H60.5846H61.8346ZM59.6418 41.1051L59.3966 39.8794L59.6418 41.1051ZM44.7513 47.9998C44.7513 47.3095 44.1917 46.7498 43.5013 46.7498C42.8109 46.7498 42.2513 47.3095 42.2513 47.9998H44.7513ZM60.5846 58.9998C60.5846 60.3345 59.5027 61.4165 58.168 61.4165V63.9165C60.8834 63.9165 63.0846 61.7152 63.0846 58.9998H60.5846ZM58.168 61.4165C56.8333 61.4165 55.7513 60.3345 55.7513 58.9998H53.2513C53.2513 61.7152 55.4526 63.9165 58.168 63.9165V61.4165ZM55.7513 58.9998C55.7513 57.6651 56.8333 56.5832 58.168 56.5832V54.0832C55.4526 54.0832 53.2513 56.2844 53.2513 58.9998H55.7513ZM58.168 56.5832C59.5027 56.5832 60.5846 57.6651 60.5846 58.9998H63.0846C63.0846 56.2844 60.8834 54.0832 58.168 54.0832V56.5832ZM42.2513 62.6665C42.2513 64.0012 41.1693 65.0832 39.8346 65.0832V67.5832C42.55 67.5832 44.7513 65.3819 44.7513 62.6665H42.2513ZM39.8346 65.0832C38.4999 65.0832 37.418 64.0012 37.418 62.6665H34.918C34.918 65.3819 37.1192 67.5832 39.8346 67.5832V65.0832ZM37.418 62.6665C37.418 61.3318 38.4999 60.2498 39.8346 60.2498V57.7498C37.1192 57.7498 34.918 59.9511 34.918 62.6665H37.418ZM39.8346 60.2498C41.1693 60.2498 42.2513 61.3318 42.2513 62.6665H44.7513C44.7513 59.9511 42.55 57.7498 39.8346 57.7498V60.2498ZM52.668 30.9165C55.3607 30.9165 57.7965 32.0064 59.5623 33.7722L61.33 32.0044C59.1146 29.789 56.0504 28.4165 52.668 28.4165V30.9165ZM49.6628 37.6613C50.4332 36.8908 51.494 36.4165 52.668 36.4165V33.9165C50.8044 33.9165 49.1151 34.6734 47.895 35.8935L49.6628 37.6613ZM45.7737 33.7722C47.5394 32.0064 49.9752 30.9165 52.668 30.9165V28.4165C49.2856 28.4165 46.2214 29.789 44.0059 32.0044L45.7737 33.7722ZM52.668 36.4165C53.8419 36.4165 54.9027 36.8908 55.6732 37.6613L57.4409 35.8935C56.2208 34.6734 54.5316 33.9165 52.668 33.9165V36.4165ZM60.5846 42.9028V46.4969H63.0846V42.9028H60.5846ZM60.1157 47.0689L45.449 50.0022L45.9393 52.4537L60.606 49.5203L60.1157 47.0689ZM44.7513 49.4302V45.8361H42.2513V49.4302H44.7513ZM45.2202 45.2641L59.8869 42.3308L59.3966 39.8794L44.7299 42.8127L45.2202 45.2641ZM44.7513 45.8361C44.7513 45.5581 44.9476 45.3187 45.2202 45.2641L44.7299 42.8127C43.2887 43.1009 42.2513 44.3664 42.2513 45.8361H44.7513ZM45.449 50.0022C45.0881 50.0744 44.7513 49.7983 44.7513 49.4302H42.2513C42.2513 51.3759 44.0314 52.8352 45.9393 52.4537L45.449 50.0022ZM60.5846 46.4969C60.5846 46.7749 60.3884 47.0143 60.1157 47.0689L60.606 49.5203C62.0472 49.2321 63.0846 47.9666 63.0846 46.4969H60.5846ZM63.0846 42.9028C63.0846 40.9571 61.3045 39.4978 59.3966 39.8794L59.8869 42.3308C60.2479 42.2586 60.5846 42.5347 60.5846 42.9028H63.0846ZM44.7513 62.6665V47.9998H42.2513V62.6665H44.7513Z" fill="white"/>
</svg>
