<svg width="34" height="37" viewBox="0 0 34 37" fill="none" xmlns="http://www.w3.org/2000/svg">
<path fill-rule="evenodd" clip-rule="evenodd" d="M23.7375 0C24.45 0 25.0282 0.57823 25.0282 1.29069L25.029 2.74971C27.5418 2.92198 29.6286 3.78267 31.1057 5.26275C32.7182 6.88214 33.5666 9.21055 33.5581 12.0036V27.7036C33.5581 33.4377 29.9165 37 24.0568 37H9.50121C3.64147 37 0 33.3878 0 27.5728V12.0002C0 6.59164 3.24748 3.11993 8.54384 2.7503L8.5449 1.29069C8.5449 0.57823 9.12313 0 9.83559 0C10.548 0 11.1263 0.57823 11.1263 1.29069L11.1258 2.71734H22.446L22.4468 1.29069C22.4468 0.57823 23.0251 0 23.7375 0ZM30.9766 15.3231H2.58138V27.5728C2.58138 31.9887 5.03886 34.4186 9.50121 34.4186H24.0568C28.5191 34.4186 30.9767 32.0334 30.9767 27.7036L30.9766 15.3231ZM24.4392 26.1517C25.1516 26.1517 25.7299 26.7299 25.7299 27.4423C25.7299 28.1548 25.1516 28.733 24.4392 28.733C23.7267 28.733 23.1416 28.1548 23.1416 27.4423C23.1416 26.7299 23.7112 26.1517 24.4237 26.1517H24.4392ZM16.8026 26.1517C17.515 26.1517 18.0933 26.7299 18.0933 27.4423C18.0933 28.1548 17.515 28.733 16.8026 28.733C16.0901 28.733 15.505 28.1548 15.505 27.4423C15.505 26.7299 16.0746 26.1517 16.7871 26.1517H16.8026ZM9.14997 26.1517C9.86243 26.1517 10.4407 26.7299 10.4407 27.4423C10.4407 28.1548 9.86243 28.733 9.14997 28.733C8.43751 28.733 7.85068 28.1548 7.85068 27.4423C7.85068 26.7299 8.42202 26.1517 9.13448 26.1517H9.14997ZM24.4392 19.4629C25.1516 19.4629 25.7299 20.0412 25.7299 20.7536C25.7299 21.4661 25.1516 22.0443 24.4392 22.0443C23.7267 22.0443 23.1416 21.4661 23.1416 20.7536C23.1416 20.0412 23.7112 19.4629 24.4237 19.4629H24.4392ZM16.8026 19.4629C17.515 19.4629 18.0933 20.0412 18.0933 20.7536C18.0933 21.4661 17.515 22.0443 16.8026 22.0443C16.0901 22.0443 15.505 21.4661 15.505 20.7536C15.505 20.0412 16.0746 19.4629 16.7871 19.4629H16.8026ZM9.14997 19.4629C9.86243 19.4629 10.4407 20.0412 10.4407 20.7536C10.4407 21.4661 9.86243 22.0443 9.14997 22.0443C8.43751 22.0443 7.85068 21.4661 7.85068 20.7536C7.85068 20.0412 8.42202 19.4629 9.13448 19.4629H9.14997ZM22.446 5.29872H11.1258L11.1263 6.95425C11.1263 7.66671 10.548 8.24494 9.83559 8.24494C9.12313 8.24494 8.5449 7.66671 8.5449 6.95425L8.54398 5.33779C4.68872 5.66165 2.58138 7.9986 2.58138 12.0002V12.7417H30.9766L30.9767 12.0002C30.9835 9.87482 30.4121 8.22274 29.2781 7.08693C28.2825 6.08847 26.8272 5.49215 25.0297 5.33861L25.0282 6.95425C25.0282 7.66671 24.45 8.24494 23.7375 8.24494C23.0251 8.24494 22.4468 7.66671 22.4468 6.95425L22.446 5.29872Z" fill="#AA8462"/>
</svg>
